# xmcd CD database file
#
# Track frame offsets:
#	150
#	15317
#	30957
#	42595
#	67232
#	83426
#	92837
#	109609
#	122575
#	141825
#
# Disc length: 2053 seconds
#
# Revision: 0
# Processed by: cddbd v1.4PL0 Copyright (c) Steve Scherf et al.
# Submitted via: CDex 1.50beta8
#
DISCID=7708030a
DTITLE=D.B. Walker - Stage Road Blues
DYEAR=2002
DGENRE=Blues
TTITLE0=Wear Me Down
TTITLE1=Found Me a Woman
TTITLE2=Funny Feeling
TTITLE3=Blue Adagio
TTITLE4=Nothings Left
TTITLE5=Get It Right
TTITLE6=Sumthins Burnin'
TTITLE7=Waiting for the Word
TTITLE8=Blue Horizon
TTITLE9=Home Again
EXTD=YEAR: 2002
EXTT0=
EXTT1=
EXTT2=
EXTT3=
EXTT4=
EXTT5=
EXTT6=
EXTT7=
EXTT8=
EXTT9=
PLAYORDER=
